Coordinates
version=1
nRows=4
nColumns=107
inDegrees=yes

Units are S.I. units (second, meters, Newtons, ...)
If the header above contains a line with 'inDegrees', this indicates whether rotational values are in degrees (yes) or radians (no).

endheader
time	sternoclavicular_r2	sternoclavicular_r3	unrotscap_r3	unrotscap_r2	acromioclavicular_r2	acromioclavicular_r3	acromioclavicular_r1	unrothum_r1	unrothum_r3	unrothum_r2	elv_angle	shoulder_elv	shoulder1_r2	shoulder_rot	elbow_flexion	pro_sup	deviation	flexion	proximal_distal_r1	proximal_distal_r3	cmc_flexion	cmc_abduction	mp_flexion	ip_flexion	mcp2_flexion	mcp2_abduction	pm2_flexion	md2_flexion	mcp3_flexion	mcp3_abduction	pm3_flexion	md3_flexion	mcp4_flexion	mcp4_abduction	pm4_flexion	md4_flexion	mcp5_flexion	mcp5_abduction	pm5_flexion	md5_flexion	bicpt_tx	bicpt_ty	bicpt_tz	bicpt2_tx	bicpt2_ty	bicpt2_tz	ptpt_tx	ptpt_ty	ptpt_tz	FCUpt_tx	FCUpt_ty	FCUpt_tz	EDCpt_tx	EDCpt_ty	EDCpt_tz	APLpt_tx	APLpt_ty	APLpt_tz	FPLpt_tx	FPLpt_ty	FPLpt_tz	FPLpt2_tx	FPLpt2_ty	FPLpt2_tz	PEC1pt2_tx	PEC1pt2_ty	PEC1pt2_tz	PEC1pt3_tx	PEC1pt3_ty	PEC1pt3_tz	PEC2pt2_tx	PEC2pt2_ty	PEC2pt2_tz	PEC2pt3_tx	PEC2pt3_ty	PEC2pt3_tz	PEC3pt2_tx	PEC3pt2_ty	PEC3pt2_tz	PEC3pt3_tx	PEC3pt3_ty	PEC3pt3_tz	DELT2pt2a_tx	DELT2pt2a_ty	DELT2pt2a_tz	DELT2pt2_tx	DELT2pt2_ty	DELT2pt2_tz	LAT1pt2_tx	LAT1pt2_ty	LAT1pt2_tz	LAT1pt3_tx	LAT1pt3_ty	LAT1pt3_tz	LAT2pt2_tx	LAT2pt2_ty	LAT2pt2_tz	LAT2pt3_tx	LAT2pt3_ty	LAT2pt3_tz	LAT3pt2_tx	LAT3pt2_ty	LAT3pt2_tz	LAT3pt3_tx	LAT3pt3_ty	LAT3pt3_tz
      0.00000000	     -0.32075241	      0.13585558	     -0.13585558	      0.32075241	     -0.06494584	      0.52486943	      0.23592520	     -0.23592520	     -0.52486943	      0.06494584	     99.37367686	     75.94098528	     -1.73439785	    -23.60013495	     28.53786246	     14.68177295	     -0.00218787	     -0.90006958	     -0.00297264	     -0.45003479	    -11.41848631	      6.13529077	    -23.48370794	     -4.90758765	      2.94077029	     12.69695102	     28.44649175	     20.78313466	     57.24661060	      6.33486131	     83.75717016	     59.71753191	     56.40363538	     -6.54810593	     86.51638914	     40.73450120	      3.94274242	    -12.89032479	    -15.27112161	      4.99086786	      0.00084394	     -0.03087088	     -0.00482685	      0.01579387	     -0.01795245	     -0.00972341	      0.00646518	     -0.06560146	     -0.00123270	      0.00533015	     -0.18393074	      0.00003468	     -0.00176181	      0.00044925	      0.00015447	      0.00024246	      0.00009698	      0.00048492	      0.00031035	      0.00093106	      0.00052372	     -0.00176452	      0.00035790	      0.00042948	      0.00248918	      0.00873322	      0.00607528	     -0.00814257	      0.01966029	     -0.01864775	      0.00248918	      0.00873322	      0.00607528	      0.00054846	      0.01822585	     -0.00957701	      0.00393938	      0.00485643	      0.01594667	      0.00000000	      0.00771230	      0.00000000	     -0.00713002	     -0.03294998	     -0.00635876	      0.01576706	     -0.00054500	     -0.00464747	     -0.00088598	      0.01485069	     -0.00607528	      0.00244699	      0.02143225	     -0.01771958	     -0.00594872	      0.01286779	     -0.00544244	     -0.01240370	      0.02717002	     -0.03041861	     -0.02328859	      0.01438661	     -0.00729878	     -0.01544135	      0.03138897	     -0.03801271
      0.03333333	     -0.32087409	      0.13590712	     -0.13590712	      0.32087409	     -0.06497048	      0.52506854	      0.23601470	     -0.23601470	     -0.52506854	      0.06497048	     99.44371114	     75.96979389	     -1.73562018	    -23.56947678	     28.36268612	     14.65875174	     -0.00316714	     -0.89848272	     -0.00430632	     -0.44924136	    -11.47658822	      6.05803406	    -23.52265424	     -4.90978999	      3.01045507	     12.73851515	     28.42795697	     20.77002793	     57.26755354	      6.31679600	     83.78246449	     59.72256894	     56.42649604	     -6.54807713	     86.52525149	     40.73339565	      4.01296849	    -12.93078824	    -15.24283567	      4.99619161	      0.00083815	     -0.03085080	     -0.00482362	      0.01579249	     -0.01790486	     -0.00972505	      0.00646688	     -0.06560036	     -0.00123084	      0.00532801	     -0.18393105	      0.00003528	     -0.00175905	      0.00044849	      0.00015432	      0.00024322	      0.00009729	      0.00048645	      0.00031133	      0.00093398	      0.00052536	     -0.00178358	      0.00036009	      0.00043211	      0.00249012	      0.00873653	      0.00607759	     -0.00814566	      0.01966775	     -0.01865482	      0.00249012	      0.00873653	      0.00607759	      0.00054867	      0.01823277	     -0.00958064	      0.00394047	      0.00485828	      0.01594935	      0.00000000	      0.00771819	      0.00000000	     -0.00713273	     -0.03296248	     -0.00636366	      0.01575082	     -0.00054402	     -0.00463518	     -0.00088632	      0.01485633	     -0.00607759	      0.00244792	      0.02144038	     -0.01772630	     -0.00595097	      0.01287267	     -0.00544451	     -0.01240841	      0.02718033	     -0.03043015	     -0.02329742	      0.01439207	     -0.00730155	     -0.01544720	      0.03140087	     -0.03802713
      0.06666667	     -0.32064550	      0.13581030	     -0.13581030	      0.32064550	     -0.06492419	      0.52469448	      0.23584656	     -0.23584656	     -0.52469448	      0.06492419	     99.48626003	     75.91567294	     -1.73636280	    -23.89996847	     28.41363643	     15.13323642	      0.00283899	     -0.87476222	      0.00384637	     -0.43738111	    -11.48430676	      5.34025421	    -24.44555087	     -3.04272287	      4.31803095	     12.73874436	     26.10432219	     18.09680198	     57.47799505	      6.14494226	     83.99699973	     60.70439731	     56.58548541	     -6.46678380	     86.67753608	     40.16436826	      4.27748474	    -12.98979427	    -15.23122387	      4.96395580	      0.00083983	     -0.03085664	     -0.00482456	      0.01582063	     -0.01791870	     -0.00969110	      0.00643182	     -0.06562303	     -0.00126906	      0.00537211	     -0.18392456	      0.00002294	     -0.00181598	      0.00046412	      0.00015737	      0.00025418	      0.00010167	      0.00050836	      0.00032535	      0.00097605	      0.00054903	     -0.00178613	      0.00036038	      0.00043246	      0.00248835	      0.00873031	      0.00607326	     -0.00813985	      0.01965374	     -0.01864153	      0.00248835	      0.00873031	      0.00607326	      0.00054828	      0.01821978	     -0.00957382	      0.00393842	      0.00485481	      0.01594431	      0.00000000	      0.00770712	      0.00000000	     -0.00712764	     -0.03293899	     -0.00635447	      0.01592503	     -0.00055463	     -0.00476856	     -0.00088568	      0.01484574	     -0.00607326	      0.00244617	      0.02142511	     -0.01771367	     -0.00594673	      0.01286350	     -0.00544063	     -0.01239957	      0.02716096	     -0.03040847	     -0.02328083	      0.01438181	     -0.00729635	     -0.01543620	      0.03137850	     -0.03800004
      0.10000000	     -0.32084111	      0.13589315	     -0.13589315	      0.32084111	     -0.06496380	      0.52501457	      0.23599044	     -0.23599044	     -0.52501457	      0.06496380	     99.45026010	     75.96198561	     -1.73573448	    -23.69654326	     28.39996761	     15.16149941	      0.00944123	     -0.85832415	      0.01274019	     -0.42916208	    -11.51581951	      4.96013416	    -24.46590543	     -2.69100865	      4.64060013	     12.74653005	     25.46681265	     16.01299393	     57.50920887	      6.17697319	     83.93098002	     61.40994667	     56.65618372	     -6.39914704	     86.62780021	     40.04106126	      4.45321592	    -13.02700417	    -15.23728023	      4.95919273	      0.00083938	     -0.03085507	     -0.00482431	      0.01582229	     -0.01791499	     -0.00968907	      0.00642974	     -0.06562438	     -0.00127134	      0.00537474	     -0.18392417	      0.00002221	     -0.00181938	      0.00046505	      0.00015755	      0.00026122	      0.00010449	      0.00052244	      0.00033436	      0.00100308	      0.00056423	     -0.00179653	      0.00036157	      0.00043388	      0.00248987	      0.00873564	      0.00607696	     -0.00814482	      0.01966573	     -0.01865290	      0.00248987	      0.00873564	      0.00607696	      0.00054861	      0.01823089	     -0.00957966	      0.00394017	      0.00485778	      0.01594862	      0.00000000	      0.00771659	      0.00000000	     -0.00713199	     -0.03295909	     -0.00636233	      0.01581797	     -0.00054809	     -0.00468627	     -0.00088622	      0.01485480	     -0.00607696	      0.00244767	      0.02143818	     -0.01772448	     -0.00595036	      0.01287135	     -0.00544395	     -0.01240713	      0.02717753	     -0.03042702	     -0.02329503	      0.01439059	     -0.00730080	     -0.01544562	      0.03139765	     -0.03802323
